# xmcd
#
# Track frame offsets: 
#        150
#        20008
#        39724
#        53473
#        67196
#        83224
#        100800
#        117141
#        130695
#        153786
#
# Disc length: 2558 seconds
#
# Revision: 0
# Processed by: cddbd v1.5.2PL0 Copyright (c) Steve Scherf et al.
# Submitted via: ExactAudioCopy v0.99pb5
#
DISCID=7909fc0a
DTITLE=Äyriäiset - Kuorineen Kaikkineen
DYEAR=2009
DGENRE=Rap
TTITLE0=Aamustondis
TTITLE1=Ylös, Ulos, Lenkille (feat. SP)
TTITLE2=Räppifiguuri
TTITLE3=Motarilla
TTITLE4=Kelpaisiko Seksi?
TTITLE5=Revolverisankari (feat. Tommi Perkele)
TTITLE6=Kaiken Takana On Spielberg
TTITLE7=Putsaa Naamas
TTITLE8=Kovanonnen Kundi
TTITLE9=Pussikeittoo (feat. Tykopaatti)
EXTD=
EXTT0=
EXTT1=
EXTT2=
EXTT3=
EXTT4=
EXTT5=
EXTT6=
EXTT7=
EXTT8=
EXTT9=
PLAYORDER=
